<?xml version="1.0" encoding="UTF-8"?>
<svg version="1.1" xmlns="http://www.w3.org/2000/svg" width="1200" height="1200">
<path d="M0 0 C1.69593014 0.84254509 3.36573296 1.73849711 5.015625 2.66796875 C6.0068335 3.22411865 6.99804199 3.78026855 8.01928711 4.35327148 C9.08542236 4.95856689 10.15155762 5.5638623 11.25 6.1875 C12.36318604 6.815354 13.47637207 7.44320801 14.62329102 8.09008789 C24.10513244 13.45445289 33.51919271 18.93306961 42.91796875 24.44140625 C58.84428554 33.77272973 74.86969965 42.93331106 90.9041748 52.0770874 C99.94435523 57.23397645 108.94507624 62.45533409 117.92675781 67.71337891 C125.54905778 72.16916344 133.20531311 76.56397146 140.875 80.9375 C153.20025196 87.96603507 165.49722067 95.04240434 177.78222656 102.14111328 C183.18670641 105.26324603 188.59344718 108.38145881 194 111.5 C200.47766885 115.23636915 206.95489983 118.97348347 213.4296875 122.71484375 C225.23629484 129.53502637 237.06027 136.3232326 248.90472412 143.07736206 C257.94471708 148.23416608 266.94525321 153.45543769 275.92675781 158.71337891 C283.54905778 163.16916344 291.20531311 167.56397146 298.875 171.9375 C311.20025196 178.96603507 323.49722067 186.04240434 335.78222656 193.14111328 C341.18670645 196.26324605 346.59347412 199.38141204 352 202.5 C354.1666775 203.74998122 356.33334417 204.99998121 358.5 206.25 C360.10875 207.178125 360.10875 207.178125 361.75 208.125 C371.49999999 213.75 371.49999999 213.75 374.74951172 215.62475586 C376.91776264 216.8756448 379.08605697 218.12645852 381.25439453 219.37719727 C386.64717915 222.48798335 392.03922093 225.60004238 397.4296875 228.71484375 C409.23629484 235.53502637 421.06027 242.3232326 432.90472412 249.07736206 C441.94471708 254.23416608 450.94525321 259.45543769 459.92675781 264.71337891 C467.54906083 269.16916523 475.20545067 273.56372671 482.875 277.9375 C492.19681551 283.2547592 501.51297881 288.58130856 510.8125 293.9375 C512.32142822 294.80459595 512.32142822 294.80459595 513.86083984 295.68920898 C515.79408258 296.80388148 517.71343089 297.94312855 519.61552334 299.11016178 C522.10253069 300.49886734 524.19657411 301.48436909 526.82372379 302.44508266 C531.21819795 304.23314697 535.0319748 306.20503247 538 310 C540.86358628 317.78858673 539.89063014 326.73900025 539.70288086 334.88891602 C539.69864775 337.45178477 539.70102869 340.01467172 539.70951843 342.57752991 C539.71292944 348.08722913 539.67053296 353.59351382 539.58595085 359.10251045 C539.46375363 367.06666004 539.42495176 375.02952325 539.40613098 382.99450862 C539.37334511 395.91805141 539.27364537 408.84016966 539.1315918 421.76293945 C538.99378991 434.31202086 538.8876727 446.86071459 538.82397461 459.41040039 C538.82003376 460.18465473 538.8160929 460.95890907 538.81203263 461.75662566 C538.79245629 465.64104604 538.77350086 469.52546916 538.75485408 473.40989411 C538.59948963 505.60763124 538.33541741 537.80361744 538 570 C534.06804528 568.7282356 530.63344163 567.38267032 527.078125 565.26953125 C526.1490332 564.72184082 525.21994141 564.17415039 524.26269531 563.60986328 C523.26850586 563.0167334 522.27431641 562.42360352 521.25 561.8125 C519.0837054 560.53452535 516.91702572 559.25720327 514.75 557.98046875 C513.63367187 557.32095215 512.51734375 556.66143555 511.3671875 555.98193359 C506.01338616 552.83067495 500.63291071 549.7261944 495.25 546.625 C494.1779834 546.0067334 493.1059668 545.3884668 492.00146484 544.75146484 C483.38027422 539.7839499 474.73911592 534.85181214 466.0958252 529.9229126 C457.05564477 524.76602355 448.05492376 519.54466591 439.07324219 514.28662109 C430.86084825 509.48588404 422.60738625 504.75859742 414.34375 500.046875 C404.80946795 494.61066155 395.29617796 489.13904894 385.79394531 483.64697266 C378.42778163 479.3926282 371.04587811 475.16650945 363.65625 470.953125 C353.42814665 465.12131169 343.23409984 459.2349777 333.07324219 453.28662109 C324.86084825 448.48588404 316.60738625 443.75859742 308.34375 439.046875 C298.80946795 433.61066155 289.29617796 428.13904894 279.79394531 422.64697266 C272.42778163 418.3926282 265.04587811 414.16650945 257.65625 409.953125 C247.42814665 404.12131169 237.23409984 398.2349777 227.07324219 392.28662109 C219.45094222 387.83083656 211.79468689 383.43602854 204.125 379.0625 C189.65049631 370.80834364 175.21778154 362.48282628 160.79101562 354.14550781 C157.56931725 352.28397328 154.34728921 350.42301161 151.125 348.5625 C150.05894531 347.94697266 148.99289062 347.33144531 147.89453125 346.69726562 C139.31004403 341.74546958 130.70419707 336.83175132 122.09527588 331.92263794 C113.05528292 326.76583392 104.05474679 321.54456231 95.07324219 316.28662109 C86.86084825 311.48588404 78.60738625 306.75859742 70.34375 302.046875 C61.88179275 297.22207481 53.43353235 292.37437975 45 287.5 C34.37772422 281.36069996 23.731456 275.26435946 13.07226562 269.18945312 C11.95916016 268.55458984 10.84605469 267.91972656 9.69921875 267.265625 C8.71783936 266.70649414 7.73645996 266.14736328 6.7253418 265.57128906 C4 264 4 264 1.39379883 262.23339844 C-0.84684402 260.81729842 -0.84684402 260.81729842 -2.98364258 261.13696289 C-5.50892976 262.21783106 -7.86777239 263.45901883 -10.26171875 264.80859375 C-11.80267212 265.6737561 -11.80267212 265.6737561 -13.37475586 266.55639648 C-14.46796143 267.17716064 -15.56116699 267.7979248 -16.6875 268.4375 C-17.81873291 269.0756665 -18.94996582 269.71383301 -20.11547852 270.37133789 C-26.92008382 274.22074499 -33.69085397 278.1223287 -40.41503906 282.11035156 C-46.72696294 285.85308531 -53.07932063 289.52397983 -59.4375 293.1875 C-60.54472412 293.82550537 -61.65194824 294.46351074 -62.79272461 295.12084961 C-65.06337068 296.42889477 -67.33412358 297.73675448 -69.60498047 299.04443359 C-75.07169975 302.19332051 -80.53577646 305.3467849 -86 308.5 C-92.52232439 312.26365365 -99.04513763 316.02644623 -105.5703125 319.78515625 C-116.02206199 325.80747329 -126.46299548 331.84669337 -136.875 337.9375 C-146.14499777 343.35921178 -155.45831752 348.70204915 -164.78845215 354.01922607 C-173.9128284 359.22045129 -183.00132774 364.48027878 -192.06689453 369.78344727 C-202.59084625 375.93766742 -213.15380137 382.02369996 -223.71777344 388.10888672 C-229.14659942 391.23680148 -234.57319281 394.36858448 -240 397.5 C-242.16665583 398.75001879 -244.3333225 400.00001878 -246.5 401.25 C-247.5725 401.86875 -248.645 402.4875 -249.75 403.125 C-337.5 453.75 -337.5 453.75 -340.75048828 455.62524414 C-342.91557071 456.87435518 -345.08060982 458.12354129 -347.24560547 459.37280273 C-352.68615706 462.51202309 -358.12747216 465.64990563 -363.5703125 468.78515625 C-374.02206199 474.80747329 -384.46299548 480.84669337 -394.875 486.9375 C-404.14499777 492.35921178 -413.45831752 497.70204915 -422.78845215 503.01922607 C-431.9128284 508.22045129 -441.00132774 513.48027878 -450.06689453 518.78344727 C-460.59084625 524.93766742 -471.15380137 531.02369996 -481.71777344 537.10888672 C-486.06606958 539.61423497 -490.41292341 542.12207822 -494.75952148 544.63037109 C-496.90717831 545.86948478 -499.05512418 547.10809764 -501.20336914 548.34619141 C-506.27803957 551.27144002 -511.3500591 554.20102587 -516.4133606 557.14590454 C-518.80315668 558.5354863 -521.19436836 559.92262172 -523.58569336 561.30957031 C-525.27140589 562.28863253 -526.95506587 563.27122606 -528.63867188 564.25390625 C-529.66154297 564.846875 -530.68441406 565.43984375 -531.73828125 566.05078125 C-532.63587158 566.57325439 -533.53346191 567.09572754 -534.45825195 567.6340332 C-537 569 -537 569 -542 571 C-542 484.87 -542 398.74 -542 310 C-483.5 276.25 -483.5 276.25 -480.24951172 274.37475586 C-478.08442929 273.12564482 -475.91939018 271.87645871 -473.75439453 270.62719727 C-468.31384294 267.48797691 -462.87252784 264.35009437 -457.4296875 261.21484375 C-446.93767906 255.16944841 -436.45518324 249.10889781 -426 243 C-414.45270484 236.25298806 -402.87097973 229.56660682 -391.28222656 222.89111328 C-385.85340058 219.76319852 -380.42680719 216.63141552 -375 213.5 C-372.83334417 212.24998121 -370.6666775 210.99998122 -368.5 209.75 C-367.4275 209.13125 -366.355 208.5125 -365.25 207.875 C-355.5 202.25 -355.5 202.25 -352.24951172 200.37475586 C-350.08442929 199.12564482 -347.91939018 197.87645871 -345.75439453 196.62719727 C-340.31384294 193.48797691 -334.87252784 190.35009437 -329.4296875 187.21484375 C-318.93767906 181.16944841 -308.45518324 175.10889781 -298 169 C-286.45270484 162.25298806 -274.87097973 155.56660682 -263.28222656 148.89111328 C-257.85340058 145.76319852 -252.42680719 142.63141552 -247 139.5 C-244.83334417 138.24998121 -242.6666775 136.99998122 -240.5 135.75 C-239.4275 135.13125 -238.355 134.5125 -237.25 133.875 C-201.49999999 113.25 -201.49999999 113.25 -198.24951172 111.37475586 C-196.08442929 110.12564482 -193.91939018 108.87645871 -191.75439453 107.62719727 C-186.31384294 104.48797691 -180.87252784 101.35009437 -175.4296875 98.21484375 C-164.93767906 92.16944841 -154.45518324 86.10889781 -144 80 C-132.45270484 73.25298806 -120.87097973 66.56660682 -109.28222656 59.89111328 C-103.85340058 56.76319852 -98.42680719 53.63141552 -93 50.5 C-90.83334417 49.24998121 -88.6666775 47.99998122 -86.5 46.75 C-85.4275 46.13125 -84.355 45.5125 -83.25 44.875 C-73.5 39.25 -73.5 39.25 -70.24951172 37.37475586 C-68.08442929 36.12564482 -65.91939018 34.87645871 -63.75439453 33.62719727 C-58.31384294 30.48797691 -52.87252784 27.35009437 -47.4296875 24.21484375 C-46.34510254 23.58964844 -45.26051758 22.96445313 -44.14306641 22.3203125 C-41.98213272 21.07534608 -39.82036194 19.8318314 -37.65771484 18.58984375 C-32.13265764 15.41102065 -26.63555265 12.19351136 -21.171875 8.91015625 C-20.07246582 8.254104 -18.97305664 7.59805176 -17.84033203 6.92211914 C-15.74133157 5.66734081 -13.64823373 4.40262015 -11.56201172 3.12670898 C-10.15846436 2.29055054 -10.15846436 2.29055054 -8.7265625 1.4375 C-7.90752441 0.94121094 -7.08848633 0.44492188 -6.24462891 -0.06640625 C-3.54300296 -1.19007578 -2.67982314 -1.08768529 0 0 Z " fill="#F4783A" transform="translate(602,66)"/>
<path d="M0 0 C1.69593014 0.84254509 3.36573296 1.73849711 5.015625 2.66796875 C6.0068335 3.22411865 6.99804199 3.78026855 8.01928711 4.35327148 C9.08542236 4.95856689 10.15155762 5.5638623 11.25 6.1875 C12.36318604 6.815354 13.47637207 7.44320801 14.62329102 8.09008789 C24.10260671 13.45302396 33.51428458 18.9299443 42.91015625 24.4375 C49.21570419 28.1321331 55.54294436 31.78852681 61.875 35.4375 C62.95515381 36.06003662 64.03530762 36.68257324 65.14819336 37.32397461 C67.33796334 38.58576826 69.52782355 39.84740534 71.71777344 41.10888672 C77.14659942 44.23680148 82.57319281 47.36858448 88 50.5 C90.16665583 51.75001879 92.3333225 53.00001878 94.5 54.25 C133.5 76.75 133.5 76.75 136.74951172 78.62475586 C138.91776264 79.8756448 141.08605697 81.12645852 143.25439453 82.37719727 C148.64717915 85.48798335 154.03922093 88.60004238 159.4296875 91.71484375 C171.23629484 98.53502637 183.06027 105.3232326 194.90472412 112.07736206 C203.94329428 117.23335445 212.94277138 122.45320673 221.92236328 127.71118164 C229.58602252 132.19189393 237.28694638 136.60515756 245 141 C253.69401686 145.95378823 262.36497229 150.94378369 271 156 C279.5951729 161.0318979 288.22312222 166.00389124 296.875 170.9375 C309.20025196 177.96603507 321.49722067 185.04240434 333.78222656 192.14111328 C339.18670645 195.26324605 344.59347412 198.38141204 350 201.5 C352.1666775 202.74998122 354.33334417 203.99998121 356.5 205.25 C358.10875 206.178125 358.10875 206.178125 359.75 207.125 C447.5 257.75 447.5 257.75 450.74951172 259.62475586 C452.91776264 260.8756448 455.08605697 262.12645852 457.25439453 263.37719727 C462.64717915 266.48798335 468.03922093 269.60004238 473.4296875 272.71484375 C482.36425777 277.8759413 491.29968781 283.03513743 500.26171875 288.1484375 C500.87251282 288.49699295 501.48330688 288.8455484 502.11260986 289.20466614 C505.03155343 290.86997202 507.95138488 292.53367505 510.87255859 294.19506836 C513.00864515 295.41237185 515.12545555 296.66428007 517.21911621 297.95318604 C519.8686891 299.50122429 522.36341421 300.46364263 525.30667114 301.31550598 C530.59885582 303.12658463 534.76130034 305.31396274 538 310 C541.26137873 320.5134151 540.49195593 332.23516693 540.38232827 343.12934446 C540.35678157 346.67571841 540.38486726 350.22085453 540.41291112 353.76714671 C540.47855474 362.1398723 540.45812472 370.50929121 540.38110352 378.88183594 C540.30314905 387.49517312 540.35939514 396.10007029 540.48390418 404.71267068 C540.58698718 412.13021784 540.61162087 419.54517162 540.5731656 426.96333563 C540.5506754 431.38410618 540.55571834 435.80011396 540.63421059 440.22034836 C541.05745854 466.9277739 541.05745854 466.9277739 536.03364372 473.61898804 C531.37609712 477.73483733 526.26147693 480.09732635 520.42712975 482.10620785 C516.85765929 483.42066773 513.86932239 485.30691813 510.65234375 487.328125 C508.41461983 488.63637044 506.17633667 489.94365977 503.9375 491.25 C501.45906385 492.69824281 498.9812886 494.14761159 496.50390625 495.59765625 C495.88499512 495.95990799 495.26608398 496.32215973 494.62841797 496.69538879 C490.25228333 499.259548 485.88694213 501.84143122 481.52734375 504.43359375 C480.92214401 504.7932724 480.31694427 505.15295105 479.69340515 505.52352905 C476.8251107 507.22875025 473.95831128 508.93637858 471.09350586 510.64746094 C469.04651892 511.86566625 466.99045843 513.06878638 464.92456055 514.25463867 C461.96922991 515.96215704 461.96922991 515.96215704 459.21020508 518.00512695 C456.43598576 519.87371167 454.24490284 521.17442647 451 522 C446.37951254 520.87937109 442.84635659 518.45368433 438.9375 515.8125 C437.80579472 515.09670093 436.67095102 514.38584249 435.53320312 513.6796875 C433.1734283 512.20973489 430.82853262 510.71951221 428.49169922 509.21337891 C423.1137571 505.77216006 417.5490148 502.65456249 412 499.5 C409.83246273 498.25151027 407.66579767 497.00150505 405.5 495.75 C404.4275 495.13125 403.355 494.5125 402.25 493.875 C355.66666667 467 309.08333333 440.125 262.5 413.25 C261.42733887 412.63116943 260.35467773 412.01233887 259.24951172 411.37475586 C257.08442929 410.12564482 254.91939018 408.87645871 252.75439453 407.62719727 C247.31384294 404.48797691 241.87252784 401.35009437 236.4296875 398.21484375 C225.97793801 392.19252671 215.53700452 386.15330663 205.125 380.0625 C196.44737759 374.98724877 187.73394432 369.97741233 179 365 C169.27884383 359.4599827 159.59105342 353.86625191 149.93310547 348.21655273 C139.40915375 342.06233258 128.84619863 335.97630004 118.28222656 329.89111328 C112.85340058 326.76319852 107.42680719 323.63141552 102 320.5 C99.83334417 319.24998121 97.6666775 317.99998122 95.5 316.75 C82.5 309.25 69.5 301.75 56.5 294.25 C55.42637207 293.63060547 54.35274414 293.01121094 53.24658203 292.37304688 C51.09128689 291.1295949 48.93601327 289.88610564 46.78076172 288.64257812 C41.77662326 285.75537125 36.7722948 282.8684957 31.76715088 279.98303223 C30.01658759 278.97380896 28.26609589 277.96446164 26.515625 276.95507812 C24.33607835 275.6983234 22.15640168 274.44179414 19.9765625 273.18554688 C18.97625 272.60869141 17.9759375 272.03183594 16.9453125 271.4375 C15.96981445 270.87933594 14.99431641 270.32117188 13.98925781 269.74609375 C11.89126259 268.52060683 9.81389595 267.25944301 7.75292969 265.97265625 C6.69750977 265.32167969 5.64208984 264.67070313 4.5546875 264 C3.60835449 263.401875 2.66202148 262.80375 1.68701172 262.1875 C-1.54012349 260.76129742 -2.70361495 260.84464543 -6 262 C-7.93527142 262.95454667 -9.8329214 263.98709091 -11.69921875 265.0703125 C-13.36936035 266.03251709 -13.36936035 266.03251709 -15.07324219 267.01416016 C-16.27807059 267.71764364 -17.48282116 268.42126042 -18.6875 269.125 C-19.94265708 269.85140012 -21.198197 270.57713909 -22.45410156 271.30224609 C-25.04038086 272.79681225 -27.62436857 274.29522831 -30.20654297 275.796875 C-33.72703244 277.84337245 -37.25484038 279.87674726 -40.78515625 281.90625 C-52.20407268 288.47223407 -63.59325445 295.0881081 -74.96630859 301.7331543 C-87.71006139 309.17449495 -100.50323051 316.53019894 -113.29101562 323.89550781 C-125.8676392 331.14033048 -138.43036957 338.4073281 -150.96142578 345.73071289 C-159.38569339 350.65051282 -167.83553896 355.52522138 -176.2890625 360.39453125 C-183.53951541 364.57349158 -190.77483863 368.77747989 -198 373 C-211.73046817 381.02281678 -225.51078086 388.95858328 -239.29101562 396.89550781 C-251.8676392 404.14033048 -264.43036957 411.4073281 -276.96142578 418.73071289 C-285.38569339 423.65051282 -293.83553896 428.52522138 -302.2890625 433.39453125 C-309.53951541 437.57349158 -316.77483863 441.77747989 -324 446 C-337.73046817 454.02281678 -351.51078086 461.95858328 -365.29101562 469.89550781 C-377.86251995 477.13738151 -390.42045752 484.40088563 -402.94604492 491.72192383 C-408.18416312 494.78126788 -413.42873411 497.82886279 -418.68359375 500.859375 C-419.80113037 501.50430908 -420.91866699 502.14924316 -422.07006836 502.8137207 C-424.29268334 504.09172834 -426.51870423 505.36383315 -428.74829102 506.62963867 C-433.61978654 509.40570052 -438.40251317 512.21162941 -443.03125 515.37890625 C-443.78607666 515.87874023 -444.54090332 516.37857422 -445.31860352 516.89355469 C-446.67616544 517.80266287 -448.01079345 518.74760278 -449.31225586 519.73535156 C-451.31835864 521.05560492 -452.60651646 521.72932724 -455 522 C-459.03256366 520.59700306 -462.42441746 518.30136009 -466 516 C-468.08876196 514.8027606 -470.18406329 513.61687089 -472.28515625 512.44140625 C-474.54501965 511.14974673 -476.804103 509.85672173 -479.0625 508.5625 C-480.28921073 507.8602448 -481.51593629 507.15801551 -482.74267578 506.45581055 C-486.49644503 504.30618569 -490.24842967 502.15345957 -494 500 C-494.8708725 499.50028687 -494.8708725 499.50028687 -495.75933838 498.99047852 C-499.63297656 496.76752198 -503.50450801 494.54092935 -507.375 492.3125 C-508.32125244 491.76859619 -509.26750488 491.22469238 -510.24243164 490.66430664 C-512.19983092 489.53538569 -514.13589554 488.36874097 -516.04997253 487.16783142 C-519.06976638 485.38055924 -522.09905721 484.21991921 -525.40606689 483.05725098 C-531.92753102 480.46690559 -537.60505194 477.61518147 -542 472 C-545.8106407 461.2826179 -544.63286603 449.16077 -544.23066664 437.96936584 C-544.09225878 433.4644617 -544.08014982 428.95917091 -544.05410767 424.45246887 C-543.98596927 415.93589099 -543.80582014 407.42559429 -543.58441889 398.91177207 C-543.33771532 389.21242623 -543.21736407 379.51276505 -543.10711932 369.8110584 C-542.8777206 349.87054469 -542.49127943 329.93566923 -542 310 C-483.5 276.25 -483.5 276.25 -480.24951172 274.37475586 C-478.08442929 273.12564482 -475.91939018 271.87645871 -473.75439453 270.62719727 C-468.31384294 267.48797691 -462.87252784 264.35009437 -457.4296875 261.21484375 C-446.93767906 255.16944841 -436.45518324 249.10889781 -426 243 C-414.45270484 236.25298806 -402.87097973 229.56660682 -391.28222656 222.89111328 C-385.85340058 219.76319852 -380.42680719 216.63141552 -375 213.5 C-372.83334417 212.24998121 -370.6666775 210.99998122 -368.5 209.75 C-367.4275 209.13125 -366.355 208.5125 -365.25 207.875 C-355.5 202.25 -355.5 202.25 -352.24951172 200.37475586 C-350.08442929 199.12564482 -347.91939018 197.87645871 -345.75439453 196.62719727 C-340.31384294 193.48797691 -334.87252784 190.35009437 -329.4296875 187.21484375 C-318.93767906 181.16944841 -308.45518324 175.10889781 -298 169 C-286.45270484 162.25298806 -274.87097973 155.56660682 -263.28222656 148.89111328 C-257.85340058 145.76319852 -252.42680719 142.63141552 -247 139.5 C-244.83334417 138.24998121 -242.6666775 136.99998122 -240.5 135.75 C-239.4275 135.13125 -238.355 134.5125 -237.25 133.875 C-201.49999999 113.25 -201.49999999 113.25 -198.24951172 111.37475586 C-196.08442929 110.12564482 -193.91939018 108.87645871 -191.75439453 107.62719727 C-186.31384294 104.48797691 -180.87252784 101.35009437 -175.4296875 98.21484375 C-164.93767906 92.16944841 -154.45518324 86.10889781 -144 80 C-132.45270484 73.25298806 -120.87097973 66.56660682 -109.28222656 59.89111328 C-103.85340058 56.76319852 -98.42680719 53.63141552 -93 50.5 C-90.83334417 49.24998121 -88.6666775 47.99998122 -86.5 46.75 C-85.4275 46.13125 -84.355 45.5125 -83.25 44.875 C-73.5 39.25 -73.5 39.25 -70.24951172 37.37475586 C-68.08442929 36.12564482 -65.91939018 34.87645871 -63.75439453 33.62719727 C-58.31384294 30.48797691 -52.87252784 27.35009437 -47.4296875 24.21484375 C-46.34510254 23.58964844 -45.26051758 22.96445312 -44.14306641 22.3203125 C-41.98213272 21.07534608 -39.82036194 19.8318314 -37.65771484 18.58984375 C-32.13265764 15.41102065 -26.63555265 12.19351136 -21.171875 8.91015625 C-20.07246582 8.254104 -18.97305664 7.59805176 -17.84033203 6.92211914 C-15.74133157 5.66734081 -13.64823373 4.40262015 -11.56201172 3.12670898 C-10.15846436 2.29055054 -10.15846436 2.29055054 -8.7265625 1.4375 C-7.90752441 0.94121094 -7.08848633 0.44492187 -6.24462891 -0.06640625 C-3.54300296 -1.19007578 -2.67982314 -1.08768529 0 0 Z " fill="#F4783A" transform="translate(602,428)"/>
<path d="M0 0 C1.18717654 0.6751739 2.3558479 1.38354896 3.5078125 2.1171875 C4.47980591 2.68554321 4.47980591 2.68554321 5.47143555 3.26538086 C6.84952099 4.07554405 8.21980152 4.89911003 9.58251953 5.73486328 C11.53130738 6.92994037 13.49597877 8.09006047 15.47265625 9.23828125 C18.23994373 10.84853398 20.99757073 12.47385592 23.75 14.109375 C29.49594528 17.51375761 35.28310993 20.84607707 41.0703125 24.1796875 C42.17673096 24.81720947 43.28314941 25.45473145 44.4230957 26.11157227 C46.69454708 27.42012045 48.96611378 28.72846845 51.23779297 30.03662109 C56.7045123 33.18550804 62.16856137 36.33902014 67.6328125 39.4921875 C69.79946561 40.742211 71.96613229 41.99221097 74.1328125 43.2421875 C184.6328125 106.9921875 184.6328125 106.9921875 295.1328125 170.7421875 C296.7422876 171.67067505 296.7422876 171.67067505 298.38427734 172.61791992 C300.54619134 173.86525298 302.70797567 175.1128108 304.86962891 176.3605957 C310.35795835 179.52827582 315.84863783 182.69175511 321.34375 185.84765625 C334.52554706 193.42416357 347.63378776 201.1058152 360.6328125 208.9921875 C357.20049641 211.87022139 353.76550095 214.16858202 349.8359375 216.3125 C348.72162354 216.92472412 347.60730957 217.53694824 346.45922852 218.16772461 C345.87585724 218.48562958 345.29248596 218.80353455 344.69143677 219.131073 C341.61771683 220.80695442 338.55314321 222.49939498 335.48828125 224.19140625 C334.88455185 224.5243721 334.28082245 224.85733795 333.65879822 225.20039368 C329.12683105 227.70516336 324.64310435 230.27890218 320.1953125 232.9296875 C312.91087485 237.26585886 305.55995951 241.48169613 298.1953125 245.6796875 C288.95344679 250.94953052 279.7210289 256.23482285 270.5078125 261.5546875 C269.44232178 262.16989258 268.37683105 262.78509766 267.27905273 263.41894531 C264.06337356 265.27623317 260.84802679 267.134095 257.6328125 268.9921875 C243.72788163 277.02793422 229.81158145 285.0427003 215.862854 293.00216675 C207.43950212 297.80917777 199.03011521 302.63977353 190.6328125 307.4921875 C178.10631914 314.73016515 165.57180427 321.95833485 152.97070312 329.06591797 C150.58156058 330.4446727 148.24039703 331.85039629 145.90429688 333.31298828 C145.28222351 333.69294449 144.66015015 334.0729007 144.01922607 334.46437073 C142.27638556 335.5306816 140.54551214 336.61648062 138.81542969 337.70336914 C135.6328125 338.9921875 135.6328125 338.9921875 132.55859375 338.38916016 C129.72060324 337.03410494 126.98753964 335.63207604 124.2734375 334.04296875 C122.74396484 333.15351562 122.74396484 333.15351562 121.18359375 332.24609375 C120.09433594 331.60542969 119.00507812 330.96476562 117.8828125 330.3046875 C116.72560278 329.62962111 115.56804393 328.95515288 114.41015625 328.28125 C112.00710668 326.88202945 109.6055733 325.48025815 107.20507812 324.07666016 C101.69494471 320.85769404 96.16276374 317.6769409 90.6328125 314.4921875 C88.4634276 313.24108318 86.29415707 311.98978053 84.125 310.73828125 C82.5157666 309.80991455 82.5157666 309.80991455 80.87402344 308.86279297 C77.64980245 307.00199294 74.42636376 305.13984459 71.203125 303.27734375 C62.35038677 298.16348761 53.49732957 293.05053398 44.6171875 287.984375 C44.03052811 287.64968201 43.44386871 287.31498901 42.83943176 286.97015381 C40.4776135 285.6229966 38.11567452 284.27605244 35.75326538 282.92993164 C29.36214122 279.28737878 22.9834279 275.62558878 16.63671875 271.90625 C14.97697021 270.93377319 14.97697021 270.93377319 13.28369141 269.94165039 C11.18931606 268.71178965 9.09646388 267.47933022 7.00537109 266.24389648 C6.0767627 265.69805908 5.1481543 265.15222168 4.19140625 264.58984375 C3.37986084 264.11039307 2.56831543 263.63094238 1.73217773 263.13696289 C-0.45182777 261.86589421 -0.45182777 261.86589421 -3.3671875 260.9921875 C-5.61118405 261.92075203 -5.61118405 261.92075203 -7.99609375 263.4296875 C-8.93501465 263.98712646 -9.87393555 264.54456543 -10.84130859 265.11889648 C-11.86047363 265.73708252 -12.87963867 266.35526855 -13.9296875 266.9921875 C-16.12061649 268.29637501 -18.3120394 269.59973306 -20.50390625 270.90234375 C-21.06970398 271.24048599 -21.63550171 271.57862823 -22.21844482 271.92701721 C-28.18821418 275.49450008 -34.21262097 278.96459831 -40.2421875 282.4296875 C-42.42719102 283.68861519 -44.61208624 284.94773089 -46.796875 286.20703125 C-47.88194336 286.83206543 -48.96701172 287.45709961 -50.08496094 288.10107422 C-55.51378692 291.22898898 -60.94038031 294.36077198 -66.3671875 297.4921875 C-68.53384333 298.74220629 -70.70051 299.99220628 -72.8671875 301.2421875 C-73.9396875 301.8609375 -75.0121875 302.4796875 -76.1171875 303.1171875 C-79.3671875 304.9921875 -82.6171875 306.8671875 -85.8671875 308.7421875 C-86.94121826 309.36182373 -88.01524902 309.98145996 -89.12182617 310.61987305 C-91.27301974 311.86094004 -93.42422405 313.10198843 -95.57543945 314.34301758 C-100.62681749 317.25717094 -105.6780906 320.17150568 -110.72897339 323.08651733 C-112.51785668 324.11892228 -114.30677467 325.15126706 -116.09570312 326.18359375 C-118.34056386 327.47904698 -120.5853594 328.7746132 -122.83007812 330.0703125 C-124.81499116 331.21569669 -126.80289799 332.35591602 -128.79443359 333.48974609 C-130.36927188 334.40942296 -131.9253857 335.3634884 -133.44384766 336.37353516 C-135.23046875 337.54296875 -135.23046875 337.54296875 -138.3671875 338.9921875 C-142.50940281 337.94084053 -145.98534599 336.23198203 -149.65625 334.078125 C-150.66574707 333.49023193 -151.67524414 332.90233887 -152.71533203 332.29663086 C-153.79669434 331.65991455 -154.87805664 331.02319824 -155.9921875 330.3671875 C-157.73480359 329.35096951 -159.47743158 328.33477144 -161.22067261 327.31962585 C-162.43126996 326.61446361 -163.64149037 325.90865388 -164.85134888 325.20222473 C-170.78904491 321.737149 -176.7597682 318.33113182 -182.73446655 314.9303894 C-193.07566222 309.04296216 -203.37316187 303.08439604 -213.64111328 297.07006836 C-220.34901143 293.14884573 -227.09488225 289.30096057 -233.8671875 285.4921875 C-241.63702747 281.12239669 -249.36268043 276.68507839 -257.0546875 272.1796875 C-265.71392251 267.10890058 -274.40148444 262.09017909 -283.1171875 257.1171875 C-283.70065948 256.78424683 -284.28413147 256.45130615 -284.88528442 256.10827637 C-287.85441386 254.41437583 -290.82403167 252.72133376 -293.79394531 251.02880859 C-299.69520439 247.66566699 -305.59410947 244.29840416 -311.4921875 240.9296875 C-312.0678949 240.60091614 -312.64360229 240.27214478 -313.23675537 239.93341064 C-323.00890374 234.35172629 -332.76097803 228.73604593 -342.50585938 223.10693359 C-350.11349408 218.71270486 -357.73153878 214.33756577 -365.3671875 209.9921875 C-363.06719762 207.4783853 -360.68412839 205.86286986 -357.73828125 204.1640625 C-356.3298999 203.34723999 -356.3298999 203.34723999 -354.89306641 202.51391602 C-353.87390137 201.92924561 -352.85473633 201.3445752 -351.8046875 200.7421875 C-350.73911621 200.12593506 -349.67354492 199.50968262 -348.57568359 198.87475586 C-345.1753434 196.90954684 -341.77133263 194.9507966 -338.3671875 192.9921875 C-336.21457381 191.74916526 -334.06222534 190.50568363 -331.91015625 189.26171875 C-324.30284528 184.86639641 -316.68944921 180.48165634 -309.07617188 176.09667969 C-297.49036984 169.42262438 -285.91165397 162.73754666 -274.3671875 155.9921875 C-260.63663562 147.96951239 -246.85640784 140.03360491 -233.07617188 132.09667969 C-220.4995483 124.85185702 -207.93681793 117.5848594 -195.40576172 110.26147461 C-186.98149411 105.34167468 -178.53164854 100.46696612 -170.078125 95.59765625 C-162.82767209 91.41869592 -155.59234887 87.21470761 -148.3671875 82.9921875 C-134.63671933 74.96937072 -120.85640664 67.03360422 -107.07617188 59.09667969 C-94.4995483 51.85185702 -81.93681793 44.5848594 -69.40576172 37.26147461 C-60.99538019 32.3497842 -52.55960066 27.4828707 -44.11987305 22.62182617 C-35.46008828 17.63078939 -26.82179852 12.60360656 -18.19335938 7.55859375 C-16.38280284 6.50023085 -14.56828406 5.44860357 -12.74902344 4.40527344 C-10.39807864 3.05110088 -10.39807864 3.05110088 -8.38378906 1.60253906 C-5.08650323 -0.6425381 -3.90369551 -1.16839146 0 0 Z " fill="#F4783B" transform="translate(602.3671875,796.0078125)"/>
</svg>
